<?xml version="1.0" encoding="UTF-8" standalone="no"?>
<svg class="rs-main-logo" id="rs-main-logo-remotestorage" xmlns="http://www.w3.org/2000/svg" version="1.1" xml:space="preserve" width="0.739008in" height="0.853339in" style="shape-rendering:geometricPrecision; text-rendering:geometricPrecision; image-rendering:optimizeQuality; fill-rule:evenodd; clip-rule:evenodd" viewBox="0 0 739 853" xmlns:xlink="http://www.w3.org/1999/xlink">
  <g>
    <polygon fill="#FF4B03" class="rs-logo-shape" points="370,754 0,542 0,640 185,747 370,853 554,747 739,640 739,525 739,525 739,476 739,427 739,378 653,427 370,589 86,427 86,427 86,361 185,418 370,524 554,418 653,361 739,311 739,213 739,213 554,107 370,0 185,107 58,180 144,230 228,181 370,100 511,181 652,263 370,425 87,263 87,263 0,213 0,213 0,311 0,378 0,427 0,476 86,525 185,582 370,689 554,582 653,525 653,590 653,592 "></polygon>
  </g>
</svg>
